:SAMPLES-PER-SECOND 30
:FULLY-SPECIFIED
:DEGREES
279
root  5.33897 33.9307 -7.29761 5.00783 28.3112 5.0833
LeftUpLeg  -9.08525 7.55728 -1.79752
LeftLeg  12.1302 -3.46658 -0.515967
LeftFoot  2.48994 0.00598926 -0.119162
LeftToes  -17.7838 8.556e-007 1.17171e-007
Spine  2.9308 2.27996 -1.50808
Spine1  5.36226 4.93503 -3.10695
RightShoulder  0.0604906 2.9965 2.68245
RightArm  -11.9041 1.24826 65.6481
RightForeArm  129.561 74.9817 138.175
RightHand  0.940106 -13.2387 -7.71412
LeftShoulder1  0.0441701 -0.0332316 -9.7254
LeftArm  -16.9691 11.5539 -66.6402
LeftForeArm  27.5311 -17.4545 -3.17192
LeftHand  0.156649 4.96051 3.24077
HEad  -1.69016 32.9565 -4.90535
RightUpLeg  -8.15653 -1.55357 -13.8111
RightLeg  13.6021 5.67694 0.992351
RightFoot  1.75965 -0.00138293 0.266604
RightToes  -45.2087 -0.259975 -0.338579
280
root  5.233 33.9315 -7.22035 5.0761 29.5189 4.95043
LeftUpLeg  -9.2632 7.02495 -1.44567
LeftLeg  12.0929 -4.12052 -0.610136
LeftFoot  2.70768 0.00892538 -0.171823
LeftToes  -18.1468 8.556e-007 1.17171e-007
Spine  2.88253 2.20725 -1.3633
Spine1  5.30735 4.71646 -2.75349
RightShoulder  0.0587222 3.31972 3.228
RightArm  -11.7737 -2.70227 64.9637
RightForeArm  106.662 79.0369 112.863
RightHand  0.960567 -12.9886 -8.04926
LeftShoulder1  0.0427493 0.306772 -9.94665
LeftArm  -15.9949 11.0381 -66.9971
LeftForeArm  27.0965 -18.149 -3.3071
LeftHand  0.149035 4.82732 3.1601
HEad  -3.12119 34.8199 -5.8826
RightUpLeg  -7.84502 -2.01761 -13.4089
RightLeg  13.5384 4.93106 0.856754
RightFoot  1.75519 -0.000191393 0.234901
RightToes  -44.5686 -0.25594 -0.337925
281
root  5.11613 33.9395 -7.12605 5.09696 30.6974 4.71026
LeftUpLeg  -9.41208 6.47424 -0.976061
LeftLeg  11.9855 -4.71454 -0.688663
LeftFoot  2.99417 0.0122649 -0.231684
LeftToes  -18.765 8.556e-007 1.17171e-007
Spine  2.81603 2.11294 -1.20998
Spine1  5.21731 4.45825 -2.38856
RightShoulder  0.0550776 3.46394 3.79058
RightArm  -11.7082 -6.02725 64.7159
RightForeArm  67.2518 79.3248 70.8619
RightHand  0.956344 -12.8877 -8.07829
LeftShoulder1  0.0406462 0.689317 -10.1904
LeftArm  -15.5445 10.735 -67.3741
LeftForeArm  26.8377 -18.8049 -3.43573
LeftHand  0.143174 4.76988 3.06219
HEad  -4.45986 36.1417 -6.70581
RightUpLeg  -7.34539 -2.02391 -12.8603
RightLeg  13.054 3.76344 0.621749
RightFoot  1.77712 0.00183311 0.190812
RightToes  -44.1172 -0.25218 -0.337179
282
root  4.98604 33.9486 -7.02378 5.09953 31.86 4.43041
LeftUpLeg  -9.52465 5.9262 -0.449313
LeftLeg  11.7515 -5.30224 -0.752004
LeftFoot  3.31708 0.0160986 -0.299836
LeftToes  -19.2764 8.556e-007 1.17171e-007
Spine  2.75285 1.99477 -1.0561
Spine1  5.13393 4.16104 -2.03418
RightShoulder  0.0518435 3.6354 4.36078
RightArm  -12.1545 -8.80176 64.8816
RightForeArm  39.2223 74.5054 39.8677
RightHand  0.900152 -12.7004 -7.70132
LeftShoulder1  0.0382242 0.953121 -10.4479
LeftArm  -15.259 10.6633 -67.6677
LeftForeArm  26.4707 -19.3841 -3.55023
LeftHand  0.14318 4.66895 3.13644
HEad  -5.77726 37.1293 -7.56383
RightUpLeg  -6.80814 -2.09365 -12.2567
RightLeg  12.4328 2.6707 0.41204
RightFoot  1.84327 0.00353189 0.15078
RightToes  -43.7768 -0.249335 -0.335448
283
root  4.84802 33.9605 -6.91323 5.0285 32.8952 4.05286
LeftUpLeg  -9.68928 5.44395 0.1817
LeftLeg  11.674 -5.84731 -0.820843
LeftFoot  3.57046 0.0196602 -0.36405
LeftToes  -19.863 8.556e-007 1.17171e-007
Spine  2.72675 1.93398 -0.897891
Spine1  5.1201 3.99276 -1.68613
RightShoulder  0.0486798 3.91262 5.10721
RightArm  -13.2777 -11.1168 65.2052
RightForeArm  28.1322 67.2411 25.0102
RightHand  0.84305 -12.1895 -7.50917
LeftShoulder1  0.0358283 1.14811 -10.5847
LeftArm  -14.9269 10.613 -68.0331
LeftForeArm  26.1439 -19.7039 -3.61386
LeftHand  0.145554 4.51798 3.32502
HEad  -7.5019 37.7377 -8.40748
RightUpLeg  -6.38154 -2.54619 -11.5822
RightLeg  11.977 2.10727 0.3083
RightFoot  1.86384 0.00409327 0.125864
RightToes  -43.4281 -0.246392 -0.33335
284
root  4.69688 33.9705 -6.79724 4.96947 33.734 3.74044
LeftUpLeg  -9.83182 5.02448 0.774991
LeftLeg  11.5896 -6.2663 -0.869928
LeftFoot  3.8245 0.0229319 -0.423728
LeftToes  -20.4063 8.556e-007 1.17171e-007
Spine  2.70392 1.93466 -0.768665
Spine1  5.1146 3.95181 -1.39435
RightShoulder  0.0451652 4.1458 5.7045
RightArm  -15.2229 -12.842 66.1207
RightForeArm  24.2555 58.5308 16.8126
RightHand  0.829812 -11.4908 -7.85906
LeftShoulder1  0.0338035 1.21506 -10.5738
LeftArm  -14.5353 10.7071 -68.4167
LeftForeArm  25.9519 -19.7991 -3.63288
LeftHand  0.14484 4.44232 3.34195
HEad  -9.16778 37.9714 -9.22815
RightUpLeg  -6.07761 -3.06362 -10.9596
RightLeg  11.6625 1.81292 0.255295
RightFoot  1.8053 0.00403091 0.107615
RightToes  -43.0514 -0.243307 -0.331091
